<svg xmlns="http://www.w3.org/2000/svg" xmlns:xlink="http://www.w3.org/1999/xlink" viewBox="0,0,255.98958,255.98958" width="50px" height="50px" fill-rule="nonzero"><g fill="#d0b0b0" fill-rule="nonzero" stroke="none" stroke-width="1" stroke-linecap="butt" stroke-linejoin="miter" stroke-miterlimit="10" stroke-dasharray="" stroke-dashoffset="0" font-family="none" font-weight="none" font-size="none" text-anchor="none" style="mix-blend-mode: normal"><g transform="scale(5.33333,5.33333)"><path d="M21.5,2c-4.1245,0 -7.5,3.3755 -7.5,7.5c0,0.8762 0.16024,1.71629 0.43945,2.5h-3.93945c-0.827,0 -1.5,-0.673 -1.5,-1.5c0,-0.827 0.673,-1.5 1.5,-1.5h1.52539c0.055,-1.055 0.27644,-2.064 0.64844,-3h-2.17383c-2.36938,0 -4.2963,1.84716 -4.4668,4.17383c-0.02295,0.10718 -0.03409,0.21656 -0.0332,0.32617v3v24c0,2.4675 2.0325,4.5 4.5,4.5h27c2.4675,0 4.5,-2.0325 4.5,-4.5v-21c0,-2.32667 -1.81295,-4.24512 -4.08789,-4.45898c0.05175,-0.3406 0.08789,-0.68676 0.08789,-1.04102c0,-3.8484 -3.1516,-7 -7,-7c-1.2905,0 -2.49784,0.36034 -3.53906,0.97656c-1.37242,-1.80452 -3.53156,-2.97656 -5.96094,-2.97656zM21.5,5c1.57876,0 2.94546,0.81176 3.74805,2.02734c-0.78536,1.13099 -1.24805,2.50008 -1.24805,3.97266c0,0.33988 0.03235,0.67261 0.08008,1h-6.30078c-0.48657,-0.71636 -0.7793,-1.56506 -0.7793,-2.5c0,-2.5035 1.9965,-4.5 4.5,-4.5zM31,7c2.2276,0 4,1.7724 4,4c0,0.34719 -0.04693,0.68052 -0.13086,1h-7.73828c-0.08393,-0.31948 -0.13086,-0.65281 -0.13086,-1c0,-2.2276 1.7724,-4 4,-4zM9,15h28.5c0.8465,0 1.5,0.6535 1.5,1.5v21c0,0.8465 -0.6535,1.5 -1.5,1.5h-27c-0.8465,0 -1.5,-0.6535 -1.5,-1.5zM33.5,24c-1.38071,0 -2.5,1.11929 -2.5,2.5c0,1.38071 1.11929,2.5 2.5,2.5c1.38071,0 2.5,-1.11929 2.5,-2.5c0,-1.38071 -1.11929,-2.5 -2.5,-2.5z"></path></g></g></svg>